<svg width="500" height="500" viewBox="0 0 500 500" fill="none" xmlns="http://www.w3.org/2000/svg">
<rect width="500" height="500" rx="108.438" fill="#FF4E00" fill-opacity="0.79"/>
<g clip-path="url(#clip0_4_104)">
<path d="M230.261 139.878C195.982 139.878 164.837 143.999 141.779 150.715V208.084C164.837 214.801 195.982 218.921 230.261 218.921C269.495 218.921 304.619 213.523 328.213 205.015V153.786C304.619 145.277 269.495 139.878 230.261 139.878Z" fill="#8F1E1C"/>
<path d="M329.746 191.802C328.741 189.026 328.54 185.512 329.391 182.125C330.915 176.06 335.23 172.698 339.03 174.616C339.972 175.092 340.794 175.848 341.475 176.808C341.537 176.808 341.599 176.808 341.661 176.813C341.661 176.813 353.263 190.642 342.524 207.022C342.291 207.951 322.593 230.907 318.033 231.637C315.049 232.116 321.911 208.2 329.746 191.802Z" fill="#8F1E1C"/>
<path d="M139.396 189.089C140.776 186.582 141.26 183.155 140.494 179.604C139.123 173.245 134.267 168.898 129.65 169.894C128.504 170.141 127.482 170.694 126.612 171.482C126.538 171.467 126.465 171.453 126.392 171.442C126.392 171.442 111.732 182.367 123.252 201.11C123.461 202.084 145.088 229.453 150.416 231.257C153.903 232.437 147.487 207.162 139.396 189.089Z" fill="#8F1E1C"/>
<path d="M118.819 190.663L118.821 190.667C118.869 190.705 118.914 190.739 118.819 190.663Z" fill="#E33A25"/>
<path d="M352.062 171.09C351.833 170.292 351.605 169.494 351.369 168.704L359.359 157.128C360.175 155.95 360.341 154.42 359.81 153.077C359.279 151.741 358.12 150.783 356.747 150.549L343.235 148.256C342.713 147.187 342.164 146.135 341.613 145.091L347.289 132.096C347.873 130.771 347.75 129.233 346.976 128.031C346.205 126.824 344.895 126.119 343.5 126.174L329.787 126.672C329.077 125.747 328.356 124.831 327.62 123.932L330.771 110.002C331.09 108.588 330.688 107.107 329.703 106.079C328.723 105.056 327.299 104.632 325.946 104.964L312.59 108.247C311.725 107.483 310.845 106.728 309.956 105.989L310.437 91.6883C310.489 90.2406 309.814 88.8651 308.655 88.062C307.497 87.2537 306.026 87.1315 304.76 87.7323L292.3 93.656C291.296 93.0805 290.287 92.5102 289.267 91.9589L287.066 77.8664C286.842 76.4388 285.924 75.2263 284.637 74.6724C283.355 74.1156 281.885 74.2953 280.759 75.1432L269.65 83.4784C268.556 83.1149 267.458 82.7667 266.345 82.4339L261.557 69.0701C261.07 67.7083 259.947 66.7078 258.578 66.4266C257.214 66.1477 255.81 66.6201 254.864 67.6771L245.513 78.1386C244.382 78.0083 243.251 77.8896 242.116 77.7917L234.897 65.6268C234.165 64.3945 232.873 63.6445 231.481 63.6445C230.092 63.6445 228.798 64.3945 228.072 65.6268L220.85 77.7917C219.715 77.8896 218.579 78.0083 217.45 78.1386L208.099 67.6771C207.152 66.6201 205.743 66.1477 204.383 66.4266C203.015 66.7109 201.89 67.7083 201.406 69.0701L196.613 82.4339C195.504 82.7667 194.405 83.118 193.309 83.4784L182.203 75.1432C181.074 74.2927 179.604 74.1133 178.319 74.6724C177.038 75.2263 176.116 76.4388 175.894 77.8664L173.69 91.9589C172.671 92.5102 171.662 93.0771 170.656 93.656L158.197 87.7323C156.932 87.1294 155.455 87.2537 154.302 88.062C153.145 88.8651 152.469 90.2406 152.521 91.6883L152.999 105.989C152.112 106.728 151.235 107.483 150.366 108.247L137.012 104.964C135.655 104.635 134.233 105.056 133.251 106.079C132.263 107.107 131.863 108.588 132.18 110.002L135.326 123.932C134.596 124.835 133.874 125.747 133.166 126.672L119.454 126.174C118.07 126.133 116.749 126.824 115.976 128.031C115.201 129.233 115.084 130.771 115.66 132.096L121.341 145.091C120.789 146.135 120.241 147.187 119.714 148.256L106.202 150.549C104.83 150.78 103.673 151.738 103.139 153.077C102.608 154.42 102.781 155.95 103.591 157.128L111.583 168.704C111.521 168.908 111.464 169.114 111.403 169.319L107.012 173.984L118.819 190.663C118.819 190.663 232.14 242.937 337.256 191.548C349.264 189.393 352.062 171.09 352.062 171.09Z" fill="#E43A25"/>
<path d="M251.85 161.677C251.85 161.677 264.391 147.946 276.932 161.677C276.932 161.677 286.786 179.988 276.932 189.141C276.932 189.141 260.808 201.958 251.85 189.141C251.85 189.141 241.1 179.071 251.85 161.677Z" fill="#030404"/>
<path d="M266.369 166.771C266.369 172.118 263.218 176.453 259.33 176.453C255.444 176.453 252.292 172.118 252.292 166.771C252.292 161.424 255.444 157.089 259.33 157.089C263.218 157.089 266.369 161.424 266.369 166.771Z" fill="white"/>
<path d="M195.876 157.928C195.876 157.928 217.389 148.403 223.26 169.663C223.26 169.663 229.411 194.443 205.594 195.841C205.594 195.841 175.224 189.992 195.876 157.928Z" fill="#030404"/>
<path d="M206.682 167.123C206.682 172.636 203.432 177.109 199.422 177.109C195.414 177.109 192.163 172.636 192.163 167.123C192.163 161.608 195.414 157.137 199.422 157.137C203.432 157.137 206.682 161.608 206.682 167.123Z" fill="white"/>
<path d="M122.501 193.567C125.357 190.322 132.295 186.391 131.764 181.515C130.812 172.784 123.572 166.411 115.592 167.281C113.613 167.496 111.775 168.138 110.143 169.113C110.023 169.085 109.902 169.058 109.782 169.036C109.782 169.036 82.7943 182.285 98.1764 208.791C98.3214 210.129 128.866 249.329 137.444 252.315C143.058 254.268 132.259 218.815 122.501 193.567Z" fill="#E43A25"/>
<path d="M341.758 192.384C338.452 189.597 329.736 187.067 329.539 182.166C329.186 173.39 335.401 166.014 343.422 165.692C345.411 165.611 347.324 165.974 349.082 166.696C349.197 166.651 349.312 166.606 349.428 166.567C349.428 166.567 378.081 175.668 366.797 204.162C366.852 205.507 342.456 248.802 334.415 253.025C329.153 255.79 335.849 218.798 341.758 192.384Z" fill="#E43A25"/>
<path d="M143.214 192.614C143.214 192.614 142.854 228.368 177.893 236.347L185.198 221.669C185.198 221.669 159.809 224.125 157.856 192.614H143.214Z" fill="#E43A25"/>
<path d="M321.658 192.614C321.658 192.614 322.017 228.368 286.979 236.347L279.673 221.669C279.673 221.669 305.062 224.125 307.015 192.614H321.658Z" fill="#E43A25"/>
<path d="M296.346 229.082C291.072 216.336 274.055 211.276 258.337 217.779C244.503 223.504 236.297 236.277 238.123 247.947C249.046 247.778 260.764 247.07 272.169 245.417C272.169 245.417 265.44 256.293 255.539 265.784C262.197 267.503 269.962 267.026 277.434 263.934C293.152 257.431 301.619 241.827 296.346 229.082Z" fill="#E43A25"/>
<path d="M198.841 244.809C198.841 244.809 213.216 246.709 232.869 247.193C234.591 234.821 225.218 221.726 210.265 216.661C193.745 211.065 176.674 217.388 172.136 230.784C167.598 244.18 177.312 259.576 193.833 265.172C201.156 267.653 208.586 267.789 214.986 266.007C205.374 256.5 198.841 244.809 198.841 244.809Z" fill="#E43A25"/>
<g clip-path="url(#clip1_4_104)">
<path d="M158.43 102.247C145.239 102.247 133.254 103.822 124.382 106.388V128.311C133.254 130.878 145.239 132.453 158.43 132.453C173.527 132.453 187.044 130.39 196.122 127.138V107.562C187.044 104.31 173.527 102.247 158.43 102.247ZM209.72 120.06L208.174 116.879C208.182 116.758 208.188 116.637 208.188 116.516C208.188 112.91 204.412 109.586 198.059 106.925V126.106C201.023 124.865 203.428 123.479 205.148 121.987C204.642 124.008 202.911 128.098 201.53 130.973C199.262 135.086 198.44 138.666 198.546 138.844C198.613 138.955 199.387 137.77 200.528 135.849C203.184 132.091 208.216 124.916 209.222 123.089C210.362 121.017 209.72 120.06 209.72 120.06ZM109.656 116.726C109.656 117.421 109.797 118.105 110.068 118.776L109.142 120.412C109.142 120.412 108.401 121.368 109.707 123.385C110.859 125.163 116.63 132.122 119.677 135.767C120.985 137.635 121.872 138.786 121.95 138.675C122.072 138.498 121.136 134.99 118.538 130.988C117.325 128.839 115.877 125.991 115.008 123.887C117.435 125.412 120.61 126.796 124.382 127.987V105.466C115.292 108.334 109.656 112.32 109.656 116.726Z" fill="#A52B00"/>
<path d="M156.785 68.9307L153.763 73.9432L152.29 74.0712L148.362 69.7443C148.186 69.519 147.947 69.3496 147.676 69.2569C147.404 69.1642 147.111 69.1521 146.832 69.2221C146.556 69.2947 146.301 69.4313 146.088 69.6206C145.876 69.8099 145.711 70.0466 145.609 70.3112L143.626 75.8886C143.157 75.9904 142.701 76.1398 142.263 76.3345L137.582 72.8103C137.144 72.5207 136.475 72.4151 135.998 72.6203C135.734 72.7453 135.503 72.9294 135.323 73.1582C135.143 73.3871 135.018 73.6543 134.96 73.9389L133.995 79.8373L132.736 80.52L127.575 78.1021C127.318 77.9624 127.026 77.9013 126.734 77.9266C126.443 77.952 126.166 78.0625 125.938 78.2443C125.468 78.5308 125.191 79.1281 125.159 79.7041L125.355 85.6656L124.28 86.5778L118.721 85.2591C118.127 85.0651 117.568 85.2774 117.113 85.7264C116.917 85.938 116.775 86.1932 116.699 86.4705C116.623 86.7479 116.615 87.0394 116.676 87.3204L118.01 93.101C117.692 93.4644 117.395 93.8457 117.121 94.2429L111.328 94.0092C111.041 93.9882 110.755 94.0506 110.503 94.1889C110.252 94.3271 110.046 94.535 109.912 94.7873C109.628 95.3034 109.521 95.9678 109.817 96.5154L112.186 101.878L111.475 103.169L105.871 104.147C105.581 104.185 105.307 104.299 105.076 104.477C104.845 104.656 104.666 104.892 104.558 105.162C104.463 105.441 104.426 105.737 104.452 106.031C104.478 106.325 104.566 106.61 104.709 106.869L108.099 111.652L108.039 111.903L98.5286 121.901C98.5286 121.901 97.1413 123.004 99.1924 125.692C101.044 127.988 110.6 137.231 115.649 142.116C116.725 143.547 117.975 144.841 119.369 145.969C119.593 145.704 118.374 141.224 114.204 136.017C110.985 131.302 106.8 124.049 107.717 123.232C107.717 123.232 108.83 121.825 111.132 120.806C111.043 120.732 111.043 120.732 111.132 120.806C111.132 120.806 158.482 142.489 202.372 121.15C207.403 120.222 210.444 122.906 210.444 122.906C211.49 123.552 208.765 130.996 206.561 135.937C203.508 141.526 203.069 145.904 203.328 146.046C204.455 144.752 205.41 143.321 206.169 141.786C210.07 136.451 217.335 126.238 218.682 123.746C220.246 120.908 218.687 120.061 218.687 120.061L208.552 112.67L208.296 111.627L211.585 106.837C211.958 106.395 211.983 105.738 211.769 105.183C211.67 104.918 211.503 104.682 211.284 104.5C211.066 104.318 210.803 104.196 210.523 104.145L204.829 103.166L204.223 101.908L206.547 96.4647C206.684 96.1943 206.743 95.8915 206.716 95.5901C206.689 95.2887 206.579 95.0006 206.397 94.7579C206.109 94.2916 205.589 94.0092 205.016 94.059L199.258 94.2316L198.333 93.0836L199.639 87.3193C199.702 87.0402 199.699 86.7505 199.632 86.4725C199.564 86.1945 199.434 85.9355 199.25 85.7152C199.054 85.492 198.8 85.3262 198.516 85.2354C198.232 85.1447 197.929 85.1325 197.638 85.2001L192.07 86.5847C191.693 86.2817 191.334 85.9574 190.995 85.6135L191.134 79.7049C191.138 79.4186 191.077 79.1351 190.954 78.876C190.831 78.617 190.65 78.3893 190.425 78.2105C190.191 78.0305 189.907 77.9246 189.611 77.9065C189.316 77.8884 189.021 77.9589 188.767 78.1089L183.619 80.5216L182.319 79.8155L181.395 73.9994C181.357 73.7115 181.242 73.4389 181.062 73.2097C180.882 72.9806 180.644 72.8032 180.373 72.6959C180.116 72.5562 179.824 72.4952 179.533 72.5205C179.241 72.5458 178.964 72.6564 178.736 72.8381L174.09 76.2719L172.738 75.898L170.764 70.3369C170.669 70.0594 170.503 69.8108 170.284 69.6148C170.065 69.4187 169.798 69.2819 169.51 69.2173C169.219 69.1643 168.918 69.187 168.637 69.2831C168.357 69.3792 168.106 69.5455 167.909 69.7659L164.004 74.118L162.584 73.9138L159.589 68.9327C159.453 68.6802 159.253 68.4676 159.008 68.3163C158.763 68.1651 158.482 68.0806 158.194 68.0712C157.614 68.0397 157.069 68.4146 156.785 68.9307Z" fill="url(#paint0_linear_4_104)"/>
<path d="M142.434 133.959C142.253 133.806 142.158 133.715 142.158 133.715L157.667 132.453C145.017 115.88 134.882 129.082 133.803 130.559V133.959H142.434ZM174.726 133.781C174.907 133.627 175.002 133.536 175.002 133.536L160.098 132.453C172.754 115.2 182.279 128.904 183.358 130.38V133.781H174.726Z" fill="black"/>
<path d="M198.566 117.325C198.566 117.325 196.88 124.023 186.326 131.068L183.39 131.761C183.39 131.761 173.825 114.438 160.276 133.955C160.276 133.955 164.492 131.53 175.802 134.503C175.802 134.503 170.597 142.414 160.131 142.154C160.131 142.154 170.161 154.136 185.454 136.842C185.454 136.842 201.618 130.635 202.927 117.325H198.566Z" fill="url(#paint1_linear_4_104)"/>
<path d="M167.139 108.74C167.139 108.74 171.871 103.595 176.602 108.74C176.602 108.74 180.32 115.6 176.602 119.029C176.602 119.029 170.519 123.831 167.139 119.029C167.139 119.029 163.084 115.256 167.139 108.74Z" fill="black"/>
<path d="M172.617 110.648C172.617 112.651 171.428 114.275 169.961 114.275C168.495 114.275 167.306 112.651 167.306 110.648C167.306 108.645 168.495 107.021 169.961 107.021C171.428 107.021 172.617 108.645 172.617 110.648Z" fill="white"/>
<path d="M146.021 107.335C146.021 107.335 154.138 103.767 156.353 111.732C156.353 111.732 158.673 121.016 149.688 121.54C149.688 121.54 138.23 119.348 146.021 107.335Z" fill="black"/>
<path d="M150.098 110.779C150.098 112.845 148.871 114.521 147.359 114.521C145.847 114.521 144.62 112.845 144.62 110.779C144.62 108.713 145.847 107.038 147.359 107.038C148.871 107.038 150.098 108.713 150.098 110.779Z" fill="white"/>
<path d="M133.85 137.9C148.674 156.778 155.695 141.618 155.695 141.618C147.373 140.689 141.47 135.188 141.47 135.188C151.456 133.923 157.229 133.819 157.229 133.819C143.862 116.31 133.018 132.166 133.018 132.166C130.313 131.185 127.531 127.44 125.476 123.98L117.18 121.552C126.724 137.667 133.85 137.9 133.85 137.9Z" fill="url(#paint2_linear_4_104)"/>
</g>
</g>
<path d="M434.254 251.858C434.217 251.181 433.847 250.579 433.544 249.972L431.998 246.879C431.849 246.581 431.79 246.248 431.79 245.914V245.914C431.79 241.131 426.917 236.703 418.634 233.08C417.948 232.78 417.188 233.289 417.188 234.038V234.038C417.188 234.777 416.446 235.288 415.749 235.04C415.53 234.961 415.309 234.884 415.086 234.807C414.675 234.666 414.396 234.28 414.396 233.845V233.845C414.396 233.416 414.128 233.034 413.721 232.896C400.642 228.471 381.45 225.677 360.054 225.677C342.056 225.677 325.615 227.654 313.061 230.916C311.818 231.239 310.967 232.37 310.967 233.654V236.52C310.967 236.52 310.967 236.52 310.967 236.52V236.52C310.967 236.52 310.967 236.52 310.967 236.52V233.929C310.967 232.186 309.278 230.939 307.634 231.517C296.498 235.43 289.737 240.574 289.737 246.209C289.737 246.423 289.747 246.637 289.766 246.85C289.899 248.301 289.901 249.822 289.168 251.081V251.081C289.054 251.278 288.92 251.467 288.838 251.68C288.632 252.22 288.441 253.489 289.81 255.544C291.471 258.037 299.791 267.794 304.183 272.903C306.069 275.522 307.349 277.136 307.46 276.98C307.637 276.733 306.287 271.815 302.541 266.204V266.204C300.791 263.187 304.401 259.535 307.703 260.656C318.102 264.187 336.286 268.367 363.427 268.341C388.341 268.317 405.207 263.928 415.372 259.912C419.318 258.352 424.07 262.378 422.192 266.183V266.183C418.922 271.949 417.737 276.969 417.889 277.217C417.986 277.374 419.102 275.712 420.747 273.018C424.576 267.749 431.831 257.692 433.281 255.129C434.126 253.636 434.292 252.555 434.254 251.858Z" fill="#A52B00"/>
<path d="M447.815 253.754C448.275 251.651 446.062 250.232 444.308 248.984L432.774 240.779C432.46 240.556 432.23 240.233 432.12 239.864V239.864C431.966 239.348 432.056 238.79 432.369 238.352L436.686 232.314C437.177 231.629 437.276 230.739 436.957 229.958C436.637 229.18 435.938 228.623 435.112 228.487L428.011 227.323C427.359 227.216 426.798 226.802 426.487 226.22V226.22C426.18 225.646 426.154 224.964 426.422 224.371L429.415 217.753C429.767 216.983 429.693 216.088 429.227 215.389C428.762 214.687 427.973 214.277 427.133 214.309L419.903 214.563C419.255 214.585 418.636 214.297 418.226 213.796V213.796C417.816 213.294 417.655 212.633 417.802 212.003L419.466 204.902C419.658 204.08 419.415 203.218 418.822 202.621C418.232 202.025 417.374 201.778 416.559 201.972L409.522 203.642C408.889 203.792 408.223 203.63 407.721 203.215V203.215C407.225 202.804 406.941 202.189 406.963 201.546L407.217 194.25C407.248 193.408 406.842 192.608 406.144 192.14C405.446 191.67 404.561 191.599 403.798 191.949L397.241 194.959C396.645 195.233 395.956 195.206 395.379 194.893V194.893C394.807 194.583 394.405 194.029 394.301 193.387L393.14 186.21C393.005 185.38 392.452 184.674 391.677 184.352C390.904 184.028 390.02 184.133 389.341 184.626L383.495 188.862C382.964 189.247 382.284 189.355 381.656 189.163V189.163C381.032 188.972 380.525 188.505 380.298 187.893L377.775 181.093C377.482 180.301 376.805 179.719 375.981 179.555C375.159 179.393 374.313 179.668 373.743 180.283L368.808 185.615C368.37 186.088 367.733 186.324 367.09 186.26V186.26C366.446 186.197 365.865 185.841 365.526 185.29L361.716 179.09C361.276 178.374 360.498 177.938 359.659 177.938C358.822 177.938 358.043 178.374 357.606 179.09L353.795 185.289C353.456 185.841 352.873 186.197 352.229 186.26V186.26C351.586 186.324 350.948 186.088 350.509 185.614L345.575 180.283C345.004 179.668 344.156 179.393 343.336 179.555C342.513 179.721 341.835 180.301 341.543 181.093L339.019 187.892C338.791 188.505 338.285 188.973 337.66 189.164V189.164C337.033 189.356 336.353 189.247 335.822 188.863L329.977 184.626C329.297 184.131 328.411 184.027 327.637 184.352C326.865 184.674 326.31 185.38 326.176 186.21L325.014 193.388C324.91 194.029 324.509 194.583 323.938 194.892V194.892C323.36 195.204 322.669 195.232 322.072 194.958L315.517 191.949C314.755 191.598 313.865 191.67 313.171 192.14C312.474 192.608 312.066 193.408 312.098 194.25L312.351 201.545C312.373 202.189 312.09 202.804 311.593 203.215V203.215C311.092 203.631 310.425 203.793 309.792 203.642L302.756 201.972C301.939 201.78 301.082 202.025 300.491 202.621C299.896 203.218 299.655 204.08 299.846 204.902L301.508 212.009C301.654 212.636 301.496 213.294 301.089 213.792V213.792C300.677 214.296 300.056 214.585 299.406 214.562L292.18 214.309C291.346 214.285 290.551 214.687 290.085 215.389C289.618 216.088 289.548 216.983 289.895 217.753L292.889 224.368C293.159 224.963 293.132 225.646 292.824 226.222V226.222C292.513 226.804 291.952 227.216 291.302 227.323L284.199 228.487C283.371 228.621 282.675 229.178 282.353 229.958C282.034 230.739 282.137 231.629 282.625 232.314L287.292 238.842C287.385 238.971 287.412 239.136 287.366 239.288V239.288C287.343 239.365 287.302 239.435 287.246 239.493L276.965 250.039C274.805 252.254 272.257 255.021 273.921 257.629C274.127 257.951 274.374 258.293 274.671 258.655C277.349 261.928 291.099 274.902 298.36 281.698C301.427 285.149 303.529 287.286 303.748 287.101C304.094 286.808 302.276 280.53 296.235 273.164C293.59 269.41 290.498 264.511 288.579 260.762C286.772 257.232 288.167 253.417 291.798 251.82V251.82C291.916 251.912 291.675 251.73 291.798 251.82C291.798 251.82 355.492 280.194 416.898 255.178C421.241 253.409 428.52 251.495 432.766 253.485V253.485C435.863 254.936 435.494 256.497 434.535 259.78C433.412 263.625 431.268 268.949 429.368 273.039C424.994 280.895 424.353 287.025 424.724 287.238C424.958 287.373 426.549 285.035 428.819 281.314C434.419 273.778 445.005 259.413 446.943 255.923C447.414 255.075 447.683 254.358 447.815 253.754Z" fill="#F74C00"/>
<path d="M416.57 249.459C416.881 247.986 418.148 246.879 419.608 246.511C423.235 245.596 430.471 242.823 439.188 234.47C439.605 234.07 439.946 233.588 440.19 233.064V233.064C441.063 231.194 440.645 228.974 439.424 227.31C436.251 222.981 431.686 213.972 440.142 205.383C443.354 202.121 451.197 202.193 450.87 206.759V206.759C450.65 209.844 453.683 217.066 455.893 214.903C456.39 214.416 456.9 213.866 457.408 213.246C460.876 209.019 466.915 208.47 465.985 213.858C465.057 219.241 461.398 225.687 451.677 232.094C449.384 233.605 447.335 235.505 445.6 237.633C441.302 242.9 431.771 252.596 419.473 253.153C417.516 253.242 416.164 251.376 416.57 249.459V249.459Z" fill="#F74C00"/>
<path d="M370.14 241.14C370.806 236.764 371.856 234.643 375.849 232.733V232.733C381.135 230.204 388.568 237.571 388.633 243.431C388.645 244.448 388.524 245.467 388.207 246.431C387.452 248.727 385.325 250.26 383.123 251.258C382.148 251.699 381.014 252.101 379.824 252.3C374.431 253.2 369.584 247.337 370.051 241.889C370.071 241.645 370.101 241.395 370.14 241.14Z" fill="black"/>
<path d="M380.508 237.689C380.508 240.497 378.794 242.774 376.679 242.774C374.565 242.774 372.851 240.497 372.851 237.689C372.851 234.88 374.565 232.603 376.679 232.603C378.794 232.603 380.508 234.88 380.508 237.689Z" fill="white"/>
<path d="M340.608 249.331C332.611 240.936 352.317 227.068 356.596 237.844V237.844C356.795 238.343 357.127 239.462 357.216 239.992C357.556 242.004 358.049 247.409 354.323 250.579C350.58 253.765 344.48 253.049 340.928 249.651C340.82 249.547 340.713 249.44 340.608 249.331Z" fill="black"/>
<path d="M348.041 237.872C348.041 240.768 346.273 243.117 344.092 243.117C341.912 243.117 340.144 240.768 340.144 237.872C340.144 234.975 341.912 232.627 344.092 232.627C346.273 232.627 348.041 234.975 348.041 237.872Z" fill="white"/>
<path d="M358.604 259.959C357.606 258.915 358.551 257.399 359.991 257.287L367.427 256.711C369.744 256.531 371.48 258.647 369.798 260.251V260.251C369.728 260.318 369.594 260.444 369.524 260.511C368.781 261.224 364.02 265.355 358.621 259.976C358.61 259.965 358.614 259.97 358.604 259.959V259.959Z" fill="black"/>
<path d="M297.406 244.171V244.171C297.164 244.171 296.926 244.164 296.69 244.111C294.136 243.539 289.603 242.407 285.264 240.742C278.443 238.125 279.076 230.334 280.443 223.157C281.414 218.057 280.373 211.9 273.419 206.323C269.982 203.567 265.52 206.867 266.172 211.224V211.224C266.882 215.965 265.02 221.452 262.224 217.559V217.559C259.783 214.16 253.259 208.412 251.368 212.144C248.963 216.889 248.761 223.586 258.938 230.501C263.626 233.685 267.976 238.088 272.367 241.67C276.593 245.12 283.915 249.37 296.509 253.172C296.531 253.178 296.555 253.166 296.561 253.143V253.143C296.566 253.123 296.586 253.11 296.607 253.113C296.867 253.158 297.133 253.184 297.406 253.184C299.956 253.184 302.024 251.167 302.024 248.677C302.024 246.188 299.956 244.171 297.406 244.171Z" fill="#F74C00"/>
<path d="M141.274 255.224C123.526 255.224 107.47 257.063 95.3198 260.067C95.1523 260.108 94.9921 259.981 94.9921 259.809V259.809C94.9921 259.633 94.8222 259.507 94.6533 259.555C82.6597 262.959 75.0399 267.659 75.0399 272.85C75.0399 273.016 75.0484 273.181 75.0649 273.346C75.1908 274.603 75.2059 275.932 74.5239 276.996V276.996C74.4221 277.155 74.3043 277.305 74.2293 277.478C74.0342 277.928 73.8406 279.009 75.1421 280.769C76.7064 282.883 84.5437 291.16 88.6791 295.494C90.4554 297.716 91.6612 299.084 91.7665 298.952C91.9323 298.742 90.6626 294.571 87.1349 289.811C87.099 289.755 87.0628 289.699 87.0265 289.643C85.4104 287.121 88.2417 284.104 91.0851 285.046C92.3334 285.459 93.6354 285.857 94.9815 286.239C94.9868 286.24 94.9921 286.236 94.9921 286.231V286.231C94.9921 286.225 94.9971 286.221 95.0024 286.223C107.19 289.273 123.371 291.145 141.274 291.145C156.216 291.145 170.038 289.841 181.215 287.636C188.01 286.295 192.502 280.111 192.502 273.184V273.184C192.502 266.258 188.01 260.074 181.215 258.733C170.038 256.528 156.216 255.224 141.274 255.224Z" fill="#A52B00"/>
<path d="M211.159 277.619C211.119 277.055 210.783 276.566 210.509 276.072L209.031 273.409C208.894 273.163 208.841 272.882 208.841 272.6V272.6C208.841 270.444 207.545 268.373 205.162 266.445C200.857 262.963 195.09 267.063 195.09 272.6V280.508C195.09 282.205 197.195 283.22 198.743 282.523V282.523C200.885 281.56 202.883 283.747 201.846 285.854C201.167 287.232 200.456 288.6 199.803 289.793C196.723 294.684 195.608 298.942 195.751 299.153C195.842 299.286 196.893 297.876 198.442 295.591C202.047 291.122 208.879 282.59 210.245 280.417C211.05 279.134 211.2 278.21 211.159 277.619Z" fill="#A52B00"/>
<path d="M223.942 279.207C224.355 277.421 222.336 276.297 220.792 275.308L209.724 268.215C209.458 268.045 209.259 267.787 209.159 267.487V267.487C209.012 267.042 209.096 266.553 209.387 266.186L213.452 261.063C213.914 260.482 214.008 259.727 213.707 259.065C213.406 258.405 212.748 257.933 211.97 257.817L205.149 256.81C204.617 256.731 204.153 256.41 203.88 255.947V255.947C203.576 255.433 203.549 254.8 203.817 254.266L206.606 248.712C206.937 248.059 206.867 247.299 206.428 246.707C205.991 246.111 205.248 245.763 204.456 245.79L197.519 246.009C196.987 246.026 196.476 245.804 196.119 245.41V245.41C195.707 244.954 195.543 244.323 195.698 243.729L197.237 237.811C197.418 237.113 197.19 236.382 196.631 235.875C196.075 235.37 195.268 235.161 194.5 235.325L187.769 236.764C187.233 236.879 186.676 236.752 186.238 236.424V236.424C185.737 236.05 185.445 235.456 185.469 234.831L185.703 228.775C185.733 228.06 185.35 227.382 184.693 226.985C184.036 226.586 183.202 226.526 182.483 226.823L176.245 229.403C175.719 229.621 175.125 229.599 174.613 229.348V229.348C174.041 229.068 173.63 228.535 173.517 227.908L172.448 221.955C172.321 221.25 171.8 220.652 171.07 220.379C170.343 220.104 169.509 220.193 168.87 220.611L163.349 224.215C162.854 224.538 162.246 224.628 161.676 224.471V224.471C161.061 224.302 160.552 223.861 160.309 223.271L157.979 217.615C157.703 216.942 157.066 216.449 156.29 216.31C155.516 216.172 154.72 216.406 154.183 216.927L149.561 221.425C149.129 221.846 148.534 222.053 147.933 221.999V221.999C147.314 221.943 146.75 221.619 146.4 221.106L142.858 215.915C142.443 215.307 141.71 214.938 140.921 214.938C140.133 214.938 139.399 215.307 138.987 215.915L135.446 221.105C135.095 221.619 134.529 221.943 133.91 221.999V221.999C133.309 222.053 132.713 221.846 132.28 221.425L127.658 216.927C127.121 216.406 126.322 216.172 125.551 216.31C124.775 216.451 124.137 216.942 123.862 217.615L121.531 223.271C121.287 223.861 120.779 224.302 120.164 224.472V224.472C119.594 224.629 118.985 224.538 118.491 224.215L112.971 220.611C112.331 220.191 111.497 220.103 110.768 220.379C110.041 220.652 109.518 221.25 109.392 221.955L108.322 227.908C108.21 228.535 107.799 229.068 107.226 229.347V229.347C106.714 229.598 106.119 229.62 105.591 229.402L99.3548 226.823C98.6372 226.525 97.7997 226.586 97.146 226.985C96.4895 227.382 96.1059 228.06 96.1356 228.775L96.3684 234.831C96.3924 235.456 96.1018 236.05 95.6011 236.424V236.424C95.1627 236.752 94.605 236.879 94.0695 236.764L87.3391 235.325C86.5695 235.162 85.763 235.37 85.206 235.875C84.6458 236.382 84.4186 237.113 84.5989 237.811L86.1363 243.735C86.2898 244.326 86.1296 244.954 85.7195 245.407V245.407C85.361 245.803 84.8485 246.026 84.3145 246.009L77.3802 245.79C76.5953 245.77 75.8462 246.111 75.4077 246.707C74.9683 247.299 74.9019 248.059 75.2286 248.712L78.0178 254.263C78.2871 254.799 78.2602 255.433 77.9547 255.95V255.95C77.6818 256.411 77.2177 256.731 76.6874 256.81L69.8645 257.817C69.086 257.931 68.4295 258.403 68.1268 259.065C67.826 259.727 67.9236 260.482 68.3829 261.063L72.7796 266.603C72.8646 266.71 72.8895 266.853 72.8463 266.983V266.983C72.8255 267.046 72.7888 267.102 72.7403 267.147L62.9033 276.236C60.9684 278.024 58.6492 280.331 60.1553 282.493C60.3548 282.779 60.5981 283.084 60.8925 283.408C63.4146 286.184 76.3617 297.189 83.1997 302.955C86.088 305.882 88.0663 307.694 88.2731 307.538C88.5993 307.289 86.8868 301.963 81.1981 295.715C78.7749 292.617 75.9529 288.598 74.138 285.454C72.331 282.323 73.6599 278.941 77.0204 277.61V277.61C77.1318 277.687 76.9052 277.533 77.0204 277.61C77.0204 277.61 137.053 301.7 194.899 280.429C198.931 278.947 205.681 277.339 209.652 278.976V278.976C212.682 280.225 212.315 281.765 211.259 284.867C210.165 288.079 208.26 292.316 206.561 295.609C202.443 302.273 201.839 307.473 202.188 307.654C202.409 307.768 203.907 305.785 206.044 302.628C211.317 296.236 221.286 284.05 223.111 281.09C223.567 280.35 223.822 279.728 223.942 279.207Z" fill="#F74C00"/>
<path d="M163.677 293.132C163.594 293.132 163.648 292.955 163.713 292.903V292.903C163.774 292.854 163.656 292.83 163.578 292.824L152.19 291.904C148.28 291.588 146.503 286.972 149.768 284.799C162.071 276.608 171.622 285.261 174.423 288.282C174.895 288.792 175.132 289.468 175.132 290.163V290.223C175.132 291.83 173.83 293.132 172.223 293.132H163.677Z" fill="black"/>
<path d="M80.636 275.184C81.6484 273.198 80.6719 270.762 78.605 269.928C76.1235 268.926 72.8342 267.478 69.8269 265.771C64.7252 262.876 66.2423 256.858 68.8324 251.595C70.9429 247.306 71.3599 241.582 65.1671 235.42C62.4133 232.68 58.0905 234.951 57.9561 238.834V238.834C57.81 243.054 53.3889 244.581 51.9612 240.607C51.9394 240.546 51.9179 240.485 51.8965 240.424C50.6589 236.881 46.6924 234.353 44.2293 237.186C41.1368 240.742 39.6421 246.272 47.7033 253.534C51.6739 257.111 55.277 261.819 59.0486 265.605C62.1194 268.688 67.2625 272.569 75.8696 276.799C77.626 277.662 79.7472 276.928 80.636 275.184V275.184Z" fill="#F74C00"/>
<path d="M150.735 268.921C151.243 264.886 152.414 263.044 156.145 261.427V261.427C161.117 259.272 168.506 265.683 168.191 271.093C168.149 271.814 168.01 272.528 167.738 273.207C166.995 275.065 165.158 276.213 163.32 277.004C162.197 277.488 160.815 277.943 159.372 278.083C154.711 278.536 150.286 273.901 150.701 269.236C150.71 269.132 150.721 269.027 150.735 268.921Z" fill="black"/>
<path d="M160.551 265.622C160.551 268.004 158.937 269.935 156.946 269.935C154.955 269.935 153.341 268.004 153.341 265.622C153.341 263.239 154.955 261.308 156.946 261.308C158.937 261.308 160.551 263.239 160.551 265.622Z" fill="white"/>
<path d="M123.598 276.03C115.313 269.497 133.603 256.034 137.982 265.633V265.633C138.209 266.13 138.549 267.169 138.644 267.707C138.978 269.605 139.357 274.426 135.3 276.971C131.835 279.144 127.083 278.635 123.805 276.189C123.736 276.137 123.666 276.084 123.598 276.03Z" fill="black"/>
<path d="M129.98 265.779C129.98 268.235 128.315 270.228 126.262 270.228C124.209 270.228 122.544 268.235 122.544 265.779C122.544 263.321 124.209 261.329 126.262 261.329C128.315 261.329 129.98 263.321 129.98 265.779Z" fill="white"/>
<path d="M198.048 273.733C196.636 273.733 195.359 274.663 194.663 275.892C193.041 278.753 189.028 284.096 179.741 289.675C179.292 289.945 178.791 290.136 178.277 290.241V290.241C176.33 290.638 174.342 289.784 172.99 288.327C170.009 285.114 163.941 280.394 155.882 283.48C152.373 284.824 151.169 292.242 154.914 292.549V292.549C157.441 292.756 162.886 296.312 160.857 297.832C159.92 298.534 158.815 299.265 157.54 299.954C152.789 302.524 151.477 308.29 156.873 308.048C161.896 307.822 168.158 305.646 175.362 299.286C177.047 297.798 178.974 296.581 181.029 295.67C186.558 293.218 197.698 287.175 200.857 277.2C201.428 275.397 199.94 273.733 198.048 273.733V273.733Z" fill="#F74C00"/>
<path d="M136.793 389.687H141.481V347.5H136.793V332.125H179.824C187.887 332.125 194.043 333.781 198.293 337.094C202.543 340.406 204.668 345.781 204.668 353.219C204.668 357.406 203.824 361.031 202.137 364.094C200.449 367.156 198.043 369.281 194.918 370.469L195.012 371.406C201.012 372.344 204.012 376.031 204.012 382.469V389.687H208.418V405.062H178.699V383.031C178.699 380.594 178.324 378.75 177.574 377.5C176.887 376.25 175.762 375.406 174.199 374.969C172.699 374.531 170.543 374.312 167.731 374.312V389.687H173.918V405.062H136.793V389.687ZM172.793 362.875C174.606 362.875 175.949 362.406 176.824 361.469C177.762 360.469 178.231 358.937 178.231 356.875V353.5C178.231 351.437 177.762 349.937 176.824 349C175.949 348 174.606 347.5 172.793 347.5H167.731V362.875H172.793ZM273.275 389.687V405.062H247.587V397.75C243.087 403.5 237.462 406.375 230.712 406.375C225.525 406.375 221.619 404.75 218.994 401.5C216.431 398.25 215.15 393.781 215.15 388.094V368.312H211.025V352.937H236.712V383.687C236.712 385.75 237.15 387.281 238.025 388.281C238.962 389.219 240.337 389.687 242.15 389.687C243.962 389.687 245.306 389.219 246.181 388.281C247.119 387.281 247.587 385.75 247.587 383.687V368.312H242.525V352.937H269.15V389.687H273.275ZM298.639 406.375C290.764 406.375 283.17 405.125 275.857 402.625V388.75H291.045V389.687C291.045 392.687 292.951 394.187 296.764 394.187C300.139 394.187 301.826 393.031 301.826 390.719C301.826 389.469 301.326 388.531 300.326 387.906C299.389 387.281 297.701 386.75 295.264 386.312L290.576 385.469C280.764 383.719 275.857 378.156 275.857 368.781C275.857 363.344 277.92 359.125 282.045 356.125C286.17 353.125 291.732 351.625 298.732 351.625C306.545 351.625 313.139 352.937 318.514 355.563V368.594H304.264V367.656C304.264 366.406 303.826 365.469 302.951 364.844C302.139 364.156 300.92 363.812 299.295 363.812C296.17 363.812 294.607 364.812 294.607 366.812C294.607 367.875 295.045 368.687 295.92 369.25C296.795 369.812 298.389 370.344 300.701 370.844L306.045 371.875C311.607 372.937 315.576 374.906 317.951 377.781C320.326 380.656 321.514 384.344 321.514 388.844C321.514 394.531 319.514 398.875 315.514 401.875C311.576 404.875 305.951 406.375 298.639 406.375ZM347.628 406.375C341.003 406.375 336.003 404.781 332.628 401.594C329.316 398.344 327.659 392.906 327.659 385.281V368.312H323.534V352.937C325.909 352.937 327.691 352.344 328.878 351.156C330.066 349.906 330.659 348.219 330.659 346.094V341.875H350.534V352.937H363.191V368.312H350.534V383.687C350.534 385.75 350.972 387.281 351.847 388.281C352.784 389.219 354.159 389.687 355.972 389.687C358.347 389.687 360.941 389.406 363.753 388.844V403.562C362.003 404.25 359.628 404.875 356.628 405.438C353.691 406.063 350.691 406.375 347.628 406.375Z" fill="white"/>
<defs>
<linearGradient id="paint0_linear_4_104" x1="161.098" y1="149.715" x2="154.036" y2="68.4324" gradientUnits="userSpaceOnUse">
<stop stop-color="#F74C00"/>
<stop offset="0.33" stop-color="#F74C00"/>
<stop offset="1" stop-color="#F49600"/>
</linearGradient>
<linearGradient id="paint1_linear_4_104" x1="181.529" y1="146.196" x2="181.529" y2="117.325" gradientUnits="userSpaceOnUse">
<stop stop-color="#CC3A00"/>
<stop offset="0.15" stop-color="#CC3A00"/>
<stop offset="0.74" stop-color="#F74C00"/>
<stop offset="1" stop-color="#F74C00"/>
</linearGradient>
<linearGradient id="paint2_linear_4_104" x1="137.205" y1="147.378" x2="137.205" y2="121.552" gradientUnits="userSpaceOnUse">
<stop stop-color="#CC3A00"/>
<stop offset="0.15" stop-color="#CC3A00"/>
<stop offset="0.74" stop-color="#F74C00"/>
<stop offset="1" stop-color="#F74C00"/>
</linearGradient>
<clipPath id="clip0_4_104">
<rect x="93.4375" y="63.5625" width="276.062" height="203.688" rx="101.844" fill="white"/>
</clipPath>
<clipPath id="clip1_4_104">
<rect width="130.562" height="86.4375" fill="white" transform="translate(93.4375 63.625)"/>
</clipPath>
</defs>
</svg>
